<?xml version="1.0" encoding="UTF-8"?>
<svg xmlns="http://www.w3.org/2000/svg" version="1.1" viewBox="0 0 304.52 198.93">
  <defs>
    <style>
      .cls-1, .cls-2, .cls-3, .cls-4, .cls-5, .cls-6 {
        fill: none;
        stroke-miterlimit: 10;
      }

      .cls-1, .cls-3 {
        stroke-width: 6px;
      }

      .cls-1, .cls-5, .cls-6 {
        stroke: #47a2da;
      }

      .cls-7 {
        fill: #5c5b5b;
      }

      .cls-2, .cls-3, .cls-4 {
        stroke: #d7e9f8;
      }

      .cls-2, .cls-6 {
        stroke-width: 3px;
      }

      .cls-8 {
        fill: #47a2da;
      }

      .cls-4, .cls-5 {
        stroke-width: 7px;
      }

      .cls-9 {
        fill: #d7e9f8;
      }
    </style>
  </defs>
  <!-- Generator: Adobe Illustrator 28.6.0, SVG Export Plug-In . SVG Version: 1.2.0 Build 709)  -->
  <g>
    <g id="Layer_1">
      <g>
        <g>
          <path className="cls-9" d="M116.98,106.36l10.96-.23c3.26,0,10.85,1.64,10.85,3.94,0,1.55-12.3,2.5-13.45,3.38-1.15.88,5.55.97,3.51.97l-15.32.34-2.6,6.47c-2.84,7.15-5.8,12.19-8.89,15.13s-6.95,4.41-11.57,4.41c-4.36,0-8-1.45-10.92-4.34s-4.38-6.51-4.38-10.85c0-6.84,3.28-12.12,9.84-15.82,4.01-2.23,9.52-3.34,16.52-3.34l5.59-.07,1.2-2.99c-1.78.66-3.6.98-5.45.98-3.59,0-6.48-1.25-8.68-3.74-2.2-2.5-3.3-5.78-3.3-9.86h-5.77c-2.62,0-3.94-1.11-3.94-3.34,0-1.43.53-2.63,1.6-3.6,1.07-.97,2.38-1.46,3.96-1.46h6.01c2.55-5.09,5.78-9.07,9.69-11.95s8.02-4.32,12.36-4.32c3.59,0,6.51,1.05,8.77,3.16,2.26,2.11,3.39,4.83,3.39,8.16,0,4.69-2.1,8.3-6.29,10.83-2.79,1.69-6.98,2.53-12.59,2.53h-8.02v.7c0,3,1.76,4.5,5.27,4.5,1.57,0,3.18-.47,4.82-1.41l1.86-1.09c1.62-.94,3-1.41,4.15-1.41,1.29,0,2.36.39,3.2,1.16s1.27,1.77,1.27,2.99c0,.75-.33,1.93-.98,3.55l-2.67,6.61ZM103.73,114.76c-4.95,0-8.73.47-11.36,1.41-2.44.87-4.36,2.12-5.77,3.74s-2.11,3.43-2.11,5.4c0,1.83.6,3.38,1.81,4.64,1.21,1.27,2.69,1.9,4.45,1.9,2.13,0,4.06-.95,5.78-2.85s3.44-4.97,5.15-9.21l2.04-5.03ZM102.64,82.35h6.82c5.81,0,8.72-1.58,8.72-4.75,0-.94-.38-1.72-1.14-2.34-.76-.62-1.73-.93-2.9-.93-1.81,0-3.73.72-5.78,2.14-2.05,1.43-3.96,3.39-5.71,5.87Z"/>
          <path className="cls-9" d="M151.13,114.48l3.23,4.08,1.86,2.25c3.61,4.45,5.41,9.16,5.41,14.13s-1.59,9.06-4.78,12.69c-4.36,4.99-10.07,7.49-17.12,7.49-5.46,0-9.94-1.68-13.43-5.04-3.49-3.36-5.24-7.67-5.24-12.92,0-6.42,2.72-11.78,8.16-16.07,2.88-2.27,5.54-3.41,7.98-3.41,1.27,0,2.3.36,3.09,1.09.8.73,1.2,1.66,1.2,2.81,0,1.55-.91,2.88-2.74,4.01l-2.81,1.72c-1.62,1.01-2.97,2.41-4.04,4.22-1.08,1.8-1.62,3.59-1.62,5.34,0,2.79.94,5.09,2.83,6.91,1.89,1.82,4.28,2.72,7.19,2.72,3.21,0,6-1.2,8.37-3.6s3.55-5.23,3.55-8.49c0-2.06-.48-3.94-1.44-5.62s-3.04-4.3-6.22-7.84c-2.23-2.46-3.82-4.62-4.78-6.47l-11.49-.06c-3.23,0-11.27-1.44-11.27-3.67,0-1.62,6.12-2.79,7.26-3.67,1.14-.88,5.6-1,7.66-1h6.01c.47-4.64,2.59-8.48,6.36-11.51,3.77-3.04,8.3-4.55,13.57-4.55,3.96,0,7.19,1.09,9.69,3.27s3.74,5,3.74,8.47c0,4.62-1.98,8.16-5.94,10.62-2.25,1.41-5.82,2.11-10.72,2.11h-3.52ZM146.91,106.08h8.44c4.76,0,7.14-1.38,7.14-4.15,0-1.08-.49-1.95-1.46-2.6-.97-.66-2.27-.98-3.88-.98-2.53,0-4.83.79-6.91,2.36-2.07,1.57-3.18,3.36-3.32,5.38Z"/>
          <path className="cls-9" d="M143.84,83h2.44c1.86,0,2.79.65,2.79,1.95,0,.9-.33,1.61-1,2.12s-1.58.76-2.75.76h-2.83c-1.27,0-2.13-.49-2.59-1.48-1.11.99-2.18,1.48-3.21,1.48h-2.52c-1.62,0-2.93-.58-3.93-1.74s-1.49-2.68-1.49-4.55c0-2.83.98-5.37,2.93-7.61,1.96-2.24,4.17-3.36,6.63-3.36,1.89,0,3.27.66,4.14,1.97.74-1.11,1.71-1.66,2.9-1.66.65,0,1.19.21,1.63.62.44.41.65.92.65,1.53,0,.41-.12.91-.35,1.48l-.24.6-3.19,7.88ZM135.81,83.11h.55c1.21,0,2.02-.49,2.41-1.48l1.55-3.83c.21-.5.31-.92.31-1.26,0-.4-.2-.75-.59-1.04-.39-.3-.86-.44-1.41-.44-1.08,0-2.13.63-3.14,1.88-1.02,1.25-1.53,2.55-1.53,3.9,0,1.52.61,2.28,1.84,2.28Z"/>
          <path className="cls-9" d="M176.56,83h2.64c1.86,0,2.79.66,2.79,1.97,0,.9-.33,1.6-.99,2.1-.66.5-1.57.75-2.74.75h-4.5c-.97,0-1.76-.26-2.37-.78-.61-.52-.91-1.2-.91-2.04,0-.58.2-1.36.6-2.35l2.08-5.07c.12-.3.18-.57.18-.82,0-.96-.49-1.44-1.46-1.44-.75,0-1.5.34-2.24,1.02-.74.68-1.33,1.58-1.77,2.7l-2.48,6.11c-.81,1.98-1.99,2.97-3.54,2.97-.61,0-1.12-.2-1.55-.6-.43-.4-.64-.87-.64-1.42,0-.43.11-.93.33-1.51l.24-.6,2.5-6.18c.22-.55.33-.97.33-1.28s-.15-.61-.44-.85c-.3-.24-.64-.37-1.04-.37-1.59,0-2.86,1.15-3.79,3.45l-2.59,6.36c-.81,1.99-1.99,2.99-3.52,2.99-.61,0-1.13-.2-1.56-.59-.44-.39-.65-.87-.65-1.43,0-.44.11-.94.33-1.51l.24-.6,4.41-10.85c.62-1.52,1.55-2.28,2.79-2.28s2.08.61,2.39,1.82c1-.86,1.82-1.42,2.45-1.71.63-.28,1.4-.42,2.31-.42,1.98,0,3.46.86,4.45,2.59,1.65-1.73,3.51-2.59,5.58-2.59,1.42,0,2.6.41,3.55,1.23s1.43,1.83,1.43,3.02c0,.75-.16,1.53-.49,2.33l-2.37,5.85Z"/>
          <path className="cls-9" d="M193.81,70.88c.66-.21,1.25-.31,1.77-.31,1.71,0,3.1.64,4.16,1.92,1.06,1.28,1.59,2.93,1.59,4.97,0,3.94-1.52,7.01-4.56,9.21-1.06.77-2.17,1.15-3.32,1.15h-2.1c-1.46,0-2.71-.52-3.74-1.57-.62,1.05-1.59,1.57-2.92,1.57-.63,0-1.17-.21-1.62-.62s-.66-.92-.66-1.51c0-.44.12-.95.35-1.53l.24-.6,9.28-22.88.24-.62c.69-1.65,1.76-2.48,3.21-2.48.66,0,1.22.2,1.67.61.45.41.68.9.68,1.49,0,.46-.12.97-.35,1.53l-.24.62-3.68,9.04ZM189.4,81.73c.74.94,1.6,1.42,2.59,1.42.71,0,1.31-.2,1.79-.6.68-.55,1.27-1.36,1.78-2.44.51-1.08.76-2.04.76-2.9,0-.66-.19-1.21-.58-1.63-.38-.42-.89-.63-1.51-.63-1.4,0-2.52,1.04-3.37,3.12l-1.48,3.65Z"/>
          <path className="cls-9" d="M217.64,83h2.44c1.86,0,2.79.65,2.79,1.95,0,.9-.33,1.61-1,2.12s-1.58.76-2.75.76h-2.83c-1.27,0-2.13-.49-2.59-1.48-1.11.99-2.18,1.48-3.21,1.48h-2.52c-1.62,0-2.93-.58-3.93-1.74s-1.49-2.68-1.49-4.55c0-2.83.98-5.37,2.93-7.61,1.96-2.24,4.17-3.36,6.63-3.36,1.89,0,3.27.66,4.14,1.97.74-1.11,1.71-1.66,2.9-1.66.65,0,1.19.21,1.63.62.43.41.65.92.65,1.53,0,.41-.12.91-.35,1.48l-.24.6-3.19,7.88ZM209.6,83.11h.55c1.21,0,2.02-.49,2.41-1.48l1.55-3.83c.21-.5.31-.92.31-1.26,0-.4-.2-.75-.59-1.04-.39-.3-.86-.44-1.41-.44-1.08,0-2.13.63-3.14,1.88-1.02,1.25-1.53,2.55-1.53,3.9,0,1.52.61,2.28,1.84,2.28Z"/>
          <path className="cls-9" d="M180.06,104.35c1.59-.86,2.9-1.3,3.93-1.3,1.46,0,2.65.41,3.58,1.22.93.81,1.4,1.85,1.4,3.1,0,.76-.18,1.58-.55,2.48l-2.39,5.96h2.61c1.91,0,2.86.67,2.86,2.02,0,.92-.34,1.64-1.01,2.16-.67.52-1.62.77-2.83.77h-4.57c-.97,0-1.78-.28-2.44-.83s-.99-1.23-.99-2.03c0-.55.17-1.24.52-2.09l2.09-5.14c.26-.65.39-1.14.39-1.48,0-.86-.58-1.3-1.73-1.3-1.55,0-2.85,1.32-3.91,3.96l-2.55,6.25c-.8,1.99-1.99,2.98-3.57,2.98-.62,0-1.15-.2-1.59-.59-.44-.39-.66-.87-.66-1.43,0-.42.11-.92.34-1.5l.25-.61,9.89-24.4c.86-2.09,2.05-3.14,3.55-3.14.62,0,1.16.21,1.6.63.45.42.67.92.67,1.51,0,.49-.2,1.21-.59,2.16l-4.32,10.64Z"/>
          <path className="cls-9" d="M202.91,103.05c2.2,0,4,.7,5.42,2.09,1.42,1.4,2.13,3.17,2.13,5.32,0,1.62-.37,3.23-1.11,4.83-.74,1.6-1.71,2.88-2.89,3.83-.79.62-1.6,1.05-2.44,1.28s-2.02.35-3.54.35c-2.47,0-4.14-.3-5-.89-2.03-1.39-3.05-3.46-3.05-6.18,0-2.88,1.04-5.37,3.11-7.48,2.08-2.11,4.53-3.16,7.37-3.16ZM202.36,107.89c-1.12,0-2.15.55-3.07,1.66-.92,1.11-1.39,2.33-1.39,3.66,0,1.76.99,2.64,2.96,2.64,1.15,0,2.04-.36,2.66-1.07,1.03-1.17,1.55-2.5,1.55-4,0-.86-.25-1.56-.75-2.09-.5-.53-1.15-.8-1.96-.8Z"/>
          <path className="cls-9" d="M216.59,118.99l-5.93,14.6c-.82,2.02-2.02,3.02-3.59,3.02-.61,0-1.13-.2-1.56-.6s-.65-.88-.65-1.44c0-.47.19-1.18.57-2.14l10.96-27.01c.56-1.36,1.53-2.05,2.91-2.05.95,0,1.71.45,2.27,1.36,1.06-1.12,2.36-1.68,3.89-1.68s2.88.6,3.85,1.81,1.47,2.79,1.47,4.76c0,3.73-1.16,6.77-3.48,9.12-.76.77-1.54,1.3-2.34,1.59-.8.29-1.93.43-3.36.43-1.55,0-2.61-.11-3.19-.32-.58-.21-1.19-.7-1.81-1.46ZM218.46,114.35c.38.67.74,1.1,1.08,1.3s.88.3,1.63.3c1.08,0,1.92-.4,2.52-1.21,1.23-1.62,1.84-3.29,1.84-5,0-1.47-.7-2.21-2.09-2.21-1.53,0-2.63.89-3.3,2.66-.08.2-.14.36-.18.5l-1.5,3.66Z"/>
          <path className="cls-3" d="M86.96,86.62l-6.25-1.65c-.84-.22-1.71-.46-2.36-1.03-1.46-1.29-1.2-3.62-.65-5.49,2.29-7.68,7.59-14.41,14.51-18.44s15.4-5.3,23.2-3.49c4.67,1.08,9.03,3.2,13.66,4.45,2.91.78,5.91,1.22,8.9,1.65,12.31,1.77,24.72,3.55,37.13,2.77,5.7-.36,11.36-1.26,16.89-2.68,2.49-.64,5.01-1.41,7.05-2.97s3.53-4.06,3.24-6.61-2.81-4.83-5.32-4.3c-2.7.57-3.99,3.76-4.01,6.52s.75,5.55.17,8.26"/>
          <path className="cls-4" d="M84.74,87.21c-1.91-.29-3.75-1.16-5.28-2.51-.61-.54-1.22-1.26-1.25-2.15"/>
          <path className="cls-2" d="M85.83,83.81c-2.04-.59-4.16-1.51-5.07-3.23-.34-.65-.48-1.37-.53-2.08-.14-1.96.37-3.94,1.46-5.66"/>
        </g>
        <g>
          <path className="cls-8" d="M119.48,105.03l10.96-.23c3.26,0,10.85,1.64,10.85,3.94,0,1.55-12.3,2.5-13.45,3.38-1.15.88,5.55.97,3.51.97l-15.32.34-2.6,6.47c-2.84,7.15-5.8,12.19-8.89,15.13s-6.95,4.41-11.57,4.41c-4.36,0-8-1.45-10.92-4.34s-4.38-6.51-4.38-10.85c0-6.84,3.28-12.12,9.84-15.82,4.01-2.23,9.52-3.34,16.52-3.34l5.59-.07,1.2-2.99c-1.78.66-3.6.98-5.45.98-3.59,0-6.48-1.25-8.68-3.74-2.2-2.5-3.3-5.78-3.3-9.86h-5.77c-2.62,0-3.94-1.11-3.94-3.34,0-1.43.53-2.63,1.6-3.6,1.07-.97,2.38-1.46,3.96-1.46h6.01c2.55-5.09,5.78-9.07,9.69-11.95s8.02-4.32,12.36-4.32c3.59,0,6.51,1.05,8.77,3.16,2.26,2.11,3.39,4.83,3.39,8.16,0,4.69-2.1,8.3-6.29,10.83-2.79,1.69-6.98,2.53-12.59,2.53h-8.02v.7c0,3,1.76,4.5,5.27,4.5,1.57,0,3.18-.47,4.82-1.41l1.86-1.09c1.62-.94,3-1.41,4.15-1.41,1.29,0,2.36.39,3.2,1.16s1.27,1.77,1.27,2.99c0,.75-.33,1.93-.98,3.55l-2.67,6.61ZM106.22,113.44c-4.95,0-8.73.47-11.36,1.41-2.44.87-4.36,2.12-5.77,3.74s-2.11,3.43-2.11,5.4c0,1.83.6,3.38,1.81,4.64,1.21,1.27,2.69,1.9,4.45,1.9,2.13,0,4.06-.95,5.78-2.85s3.44-4.97,5.15-9.21l2.04-5.03ZM105.13,81.02h6.82c5.81,0,8.72-1.58,8.72-4.75,0-.94-.38-1.72-1.14-2.34-.76-.62-1.73-.93-2.9-.93-1.81,0-3.73.72-5.78,2.14-2.05,1.43-3.96,3.39-5.71,5.87Z"/>
          <path className="cls-8" d="M153.63,113.16l3.23,4.08,1.86,2.25c3.61,4.45,5.41,9.16,5.41,14.13s-1.59,9.06-4.78,12.69c-4.36,4.99-10.07,7.49-17.12,7.49-5.46,0-9.94-1.68-13.43-5.04-3.49-3.36-5.24-7.67-5.24-12.92,0-6.42,2.72-11.78,8.16-16.07,2.88-2.27,5.54-3.41,7.98-3.41,1.27,0,2.3.36,3.09,1.09.8.73,1.2,1.66,1.2,2.81,0,1.55-.91,2.88-2.74,4.01l-2.81,1.72c-1.62,1.01-2.97,2.41-4.04,4.22-1.08,1.8-1.62,3.59-1.62,5.34,0,2.79.94,5.09,2.83,6.91,1.89,1.82,4.28,2.72,7.19,2.72,3.21,0,6-1.2,8.37-3.6s3.55-5.23,3.55-8.49c0-2.06-.48-3.94-1.44-5.62s-3.04-4.3-6.22-7.84c-2.23-2.46-3.82-4.62-4.78-6.47l-11.49-.06c-3.23,0-11.27-1.44-11.27-3.67,0-1.62,6.12-2.79,7.26-3.67,1.14-.88,5.6-1,7.66-1h6.01c.47-4.64,2.59-8.48,6.36-11.51,3.77-3.04,8.3-4.55,13.57-4.55,3.96,0,7.19,1.09,9.69,3.27s3.74,5,3.74,8.47c0,4.62-1.98,8.16-5.94,10.62-2.25,1.41-5.82,2.11-10.72,2.11h-3.52ZM149.41,104.75h8.44c4.76,0,7.14-1.38,7.14-4.15,0-1.08-.49-1.95-1.46-2.6-.97-.66-2.27-.98-3.88-.98-2.53,0-4.83.79-6.91,2.36-2.07,1.57-3.18,3.36-3.32,5.38Z"/>
          <path className="cls-8" d="M146.34,81.67h2.44c1.86,0,2.79.65,2.79,1.95,0,.9-.33,1.61-1,2.12s-1.58.76-2.75.76h-2.83c-1.27,0-2.13-.49-2.59-1.48-1.11.99-2.18,1.48-3.21,1.48h-2.52c-1.62,0-2.93-.58-3.93-1.74s-1.49-2.68-1.49-4.55c0-2.83.98-5.37,2.93-7.61,1.96-2.24,4.17-3.36,6.63-3.36,1.89,0,3.27.66,4.14,1.97.74-1.11,1.71-1.66,2.9-1.66.65,0,1.19.21,1.63.62.44.41.65.92.65,1.53,0,.41-.12.91-.35,1.48l-.24.6-3.19,7.88ZM138.3,81.78h.55c1.21,0,2.02-.49,2.41-1.48l1.55-3.83c.21-.5.31-.92.31-1.26,0-.4-.2-.75-.59-1.04-.39-.3-.86-.44-1.41-.44-1.08,0-2.13.63-3.14,1.88-1.02,1.25-1.53,2.55-1.53,3.9,0,1.52.61,2.28,1.84,2.28Z"/>
          <path className="cls-8" d="M179.05,81.67h2.64c1.86,0,2.79.66,2.79,1.97,0,.9-.33,1.6-.99,2.1-.66.5-1.57.75-2.74.75h-4.5c-.97,0-1.76-.26-2.37-.78-.61-.52-.91-1.2-.91-2.04,0-.58.2-1.36.6-2.35l2.08-5.07c.12-.3.18-.57.18-.82,0-.96-.49-1.44-1.46-1.44-.75,0-1.5.34-2.24,1.02-.74.68-1.33,1.58-1.77,2.7l-2.48,6.11c-.81,1.98-1.99,2.97-3.54,2.97-.61,0-1.12-.2-1.55-.6-.43-.4-.64-.87-.64-1.42,0-.43.11-.93.33-1.51l.24-.6,2.5-6.18c.22-.55.33-.97.33-1.28s-.15-.61-.44-.85c-.3-.24-.64-.37-1.04-.37-1.59,0-2.86,1.15-3.79,3.45l-2.59,6.36c-.81,1.99-1.99,2.99-3.52,2.99-.61,0-1.13-.2-1.56-.59-.44-.39-.65-.87-.65-1.43,0-.44.11-.94.33-1.51l.24-.6,4.41-10.85c.62-1.52,1.55-2.28,2.79-2.28s2.08.61,2.39,1.82c1-.86,1.82-1.42,2.45-1.71.63-.28,1.4-.42,2.31-.42,1.98,0,3.46.86,4.45,2.59,1.65-1.73,3.51-2.59,5.58-2.59,1.42,0,2.6.41,3.55,1.23s1.43,1.83,1.43,3.02c0,.75-.16,1.53-.49,2.33l-2.37,5.85Z"/>
          <path className="cls-8" d="M196.3,69.56c.66-.21,1.25-.31,1.77-.31,1.71,0,3.1.64,4.16,1.92,1.06,1.28,1.59,2.93,1.59,4.97,0,3.94-1.52,7.01-4.56,9.21-1.06.77-2.17,1.15-3.32,1.15h-2.1c-1.46,0-2.71-.52-3.74-1.57-.62,1.05-1.59,1.57-2.92,1.57-.63,0-1.17-.21-1.62-.62s-.66-.92-.66-1.51c0-.44.12-.95.35-1.53l.24-.6,9.28-22.88.24-.62c.69-1.65,1.76-2.48,3.21-2.48.66,0,1.22.2,1.67.61.45.41.68.9.68,1.49,0,.46-.12.97-.35,1.53l-.24.62-3.68,9.04ZM191.9,80.41c.74.94,1.6,1.42,2.59,1.42.71,0,1.31-.2,1.79-.6.68-.55,1.27-1.36,1.78-2.44.51-1.08.76-2.04.76-2.9,0-.66-.19-1.21-.58-1.63-.38-.42-.89-.63-1.51-.63-1.4,0-2.52,1.04-3.37,3.12l-1.48,3.65Z"/>
          <path className="cls-8" d="M220.13,81.67h2.44c1.86,0,2.79.65,2.79,1.95,0,.9-.33,1.61-1,2.12s-1.58.76-2.75.76h-2.83c-1.27,0-2.13-.49-2.59-1.48-1.11.99-2.18,1.48-3.21,1.48h-2.52c-1.62,0-2.93-.58-3.93-1.74s-1.49-2.68-1.49-4.55c0-2.83.98-5.37,2.93-7.61,1.96-2.24,4.17-3.36,6.63-3.36,1.89,0,3.27.66,4.14,1.97.74-1.11,1.71-1.66,2.9-1.66.65,0,1.19.21,1.63.62.43.41.65.92.65,1.53,0,.41-.12.91-.35,1.48l-.24.6-3.19,7.88ZM212.1,81.78h.55c1.21,0,2.02-.49,2.41-1.48l1.55-3.83c.21-.5.31-.92.31-1.26,0-.4-.2-.75-.59-1.04-.39-.3-.86-.44-1.41-.44-1.08,0-2.13.63-3.14,1.88-1.02,1.25-1.53,2.55-1.53,3.9,0,1.52.61,2.28,1.84,2.28Z"/>
          <path className="cls-8" d="M182.55,103.02c1.59-.86,2.9-1.3,3.93-1.3,1.46,0,2.65.41,3.58,1.22.93.81,1.4,1.85,1.4,3.1,0,.76-.18,1.58-.55,2.48l-2.39,5.96h2.61c1.91,0,2.86.67,2.86,2.02,0,.92-.34,1.64-1.01,2.16-.67.52-1.62.77-2.83.77h-4.57c-.97,0-1.78-.28-2.44-.83s-.99-1.23-.99-2.03c0-.55.17-1.24.52-2.09l2.09-5.14c.26-.65.39-1.14.39-1.48,0-.86-.58-1.3-1.73-1.3-1.55,0-2.85,1.32-3.91,3.96l-2.55,6.25c-.8,1.99-1.99,2.98-3.57,2.98-.62,0-1.15-.2-1.59-.59-.44-.39-.66-.87-.66-1.43,0-.42.11-.92.34-1.5l.25-.61,9.89-24.4c.86-2.09,2.05-3.14,3.55-3.14.62,0,1.16.21,1.6.63.45.42.67.92.67,1.51,0,.49-.2,1.21-.59,2.16l-4.32,10.64Z"/>
          <path className="cls-8" d="M205.4,101.73c2.2,0,4,.7,5.42,2.09,1.42,1.4,2.13,3.17,2.13,5.32,0,1.62-.37,3.23-1.11,4.83-.74,1.6-1.71,2.88-2.89,3.83-.79.62-1.6,1.05-2.44,1.28s-2.02.35-3.54.35c-2.47,0-4.14-.3-5-.89-2.03-1.39-3.05-3.46-3.05-6.18,0-2.88,1.04-5.37,3.11-7.48,2.08-2.11,4.53-3.16,7.37-3.16ZM204.86,106.57c-1.12,0-2.15.55-3.07,1.66-.92,1.11-1.39,2.33-1.39,3.66,0,1.76.99,2.64,2.96,2.64,1.15,0,2.04-.36,2.66-1.07,1.03-1.17,1.55-2.5,1.55-4,0-.86-.25-1.56-.75-2.09-.5-.53-1.15-.8-1.96-.8Z"/>
          <path className="cls-8" d="M219.09,117.66l-5.93,14.6c-.82,2.02-2.02,3.02-3.59,3.02-.61,0-1.13-.2-1.56-.6s-.65-.88-.65-1.44c0-.47.19-1.18.57-2.14l10.96-27.01c.56-1.36,1.53-2.05,2.91-2.05.95,0,1.71.45,2.27,1.36,1.06-1.12,2.36-1.68,3.89-1.68s2.88.6,3.85,1.81,1.47,2.79,1.47,4.76c0,3.73-1.16,6.77-3.48,9.12-.76.77-1.54,1.3-2.34,1.59-.8.29-1.93.43-3.36.43-1.55,0-2.61-.11-3.19-.32-.58-.21-1.19-.7-1.81-1.46ZM220.95,113.03c.38.67.74,1.1,1.08,1.3s.88.3,1.63.3c1.08,0,1.92-.4,2.52-1.21,1.23-1.62,1.84-3.29,1.84-5,0-1.47-.7-2.21-2.09-2.21-1.53,0-2.63.89-3.3,2.66-.08.2-.14.36-.18.5l-1.5,3.66Z"/>
          <path className="cls-1" d="M89.46,85.3l-6.25-1.65c-.84-.22-1.71-.46-2.36-1.03-1.46-1.29-1.2-3.62-.65-5.49,2.29-7.68,7.59-14.41,14.51-18.44s15.4-5.3,23.2-3.49c4.67,1.08,9.03,3.2,13.66,4.45,2.91.78,5.91,1.22,8.9,1.65,12.31,1.77,24.72,3.55,37.13,2.77,5.7-.36,11.36-1.26,16.89-2.68,2.49-.64,5.01-1.41,7.05-2.97s3.53-4.06,3.24-6.61-2.81-4.83-5.32-4.3c-2.7.57-3.99,3.76-4.01,6.52-.02,2.76.75,5.55.17,8.26"/>
          <path className="cls-5" d="M87.23,85.88c-1.91-.29-3.75-1.16-5.28-2.51-.61-.54-1.22-1.26-1.25-2.15"/>
          <path className="cls-6" d="M88.32,82.48c-2.04-.59-4.16-1.51-5.07-3.23-.34-.65-.48-1.37-.53-2.08-.14-1.96.37-3.94,1.46-5.66"/>
        </g>
      </g>
    </g>
  </g>
</svg>